<svg width="0" height="0"><symbol xmlns="http://www.w3.org/2000/svg" id="github" viewBox="0 0 20 20"><path fill-rule="evenodd" d="M10 0c5.523 0 10 4.59 10 10.253 0 4.529-2.862 8.371-6.833 9.728-.507.101-.687-.219-.687-.492 0-.338.012-1.442.012-2.814 0-.956-.32-1.58-.679-1.898 2.227-.254 4.567-1.121 4.567-5.059 0-1.12-.388-2.034-1.03-2.752.104-.259.447-1.302-.098-2.714 0 0-.838-.275-2.747 1.051A9.4 9.4 0 0 0 10 4.958a9.4 9.4 0 0 0-2.503.345C5.586 3.977 4.746 4.252 4.746 4.252c-.543 1.412-.2 2.455-.097 2.714-.639.718-1.03 1.632-1.03 2.752 0 3.928 2.335 4.808 4.556 5.067-.286.256-.545.708-.635 1.371-.57.262-2.018.715-2.91-.852 0 0-.529-.985-1.533-1.057 0 0-.975-.013-.068.623 0 0 .655.315 1.11 1.5 0 0 .587 1.83 3.369 1.21.005.857.014 1.665.014 1.909 0 .271-.184.588-.683.493C2.865 18.627 0 14.783 0 10.253 0 4.59 4.478 0 10 0"/></symbol><symbol xmlns="http://www.w3.org/2000/svg" xml:space="preserve" id="gmail" viewBox="0 0 512 512"><path d="M437.019 74.981C388.667 26.628 324.379 0 256 0S123.333 26.628 74.982 74.981C26.628 123.333 0 187.621 0 256s26.628 132.667 74.982 181.019C123.333 485.372 187.621 512 256 512s132.667-26.628 181.019-74.981S512 324.379 512 256s-26.628-132.667-74.981-181.019M256 16.168c53.148 0 102.304 17.389 142.103 46.759L256 170.411 113.897 62.927C153.696 33.557 202.852 16.168 256 16.168M64.674 400.443C34.246 360.238 16.168 310.193 16.168 256c0-49.856 15.297-96.202 41.436-134.606l7.069 5.547v273.502zm285.4-217.751c-3.815 2.993-4.154 8.648-.725 12.077a8.083 8.083 0 0 0 10.707.643l71.102-55.787v280.013c-43.8 46.854-106.112 76.193-175.158 76.193s-131.358-29.339-175.158-76.193V139.625l170.167 133.513a8.07 8.07 0 0 0 4.991 1.725 8.07 8.07 0 0 0 4.991-1.725l67.859-53.242c3.815-2.993 4.155-8.648.727-12.077a8.083 8.083 0 0 0-10.707-.643L256 256.503 67.149 108.331a242 242 0 0 1 33.664-35.027l150.31 113.691a8.085 8.085 0 0 0 9.754 0L411.188 73.303a242 242 0 0 1 33.664 35.027zm97.252-55.752 7.069-5.547c26.139 38.404 41.436 84.75 41.436 134.606 0 54.193-18.077 104.238-48.505 144.443z"/></symbol><symbol xmlns="http://www.w3.org/2000/svg" xml:space="preserve" id="linkedin" viewBox="-143 145 512 512"><path d="M113 145c-141.4 0-256 114.6-256 256s114.6 256 256 256 256-114.6 256-256-114.6-256-256-256m159.8 415.7c-20.8 20.8-44.9 37.1-71.8 48.4-27.8 11.8-57.4 17.7-88 17.7-30.5 0-60.1-6-88-17.7-26.9-11.4-51.1-27.7-71.8-48.4-20.8-20.8-37.1-44.9-48.4-71.8C-107 461.1-113 431.5-113 401s6-60.1 17.7-88c11.4-26.9 27.7-51.1 48.4-71.8 20.9-20.8 45-37.1 71.9-48.5C52.9 181 82.5 175 113 175s60.1 6 88 17.7c26.9 11.4 51.1 27.7 71.8 48.4 20.8 20.8 37.1 44.9 48.4 71.8 11.8 27.8 17.7 57.4 17.7 88 0 30.5-6 60.1-17.7 88-11.4 26.9-27.7 51.1-48.4 71.8"/><path d="M-8.5 348.4h49.9v159.7H-8.5zM15.4 273c-18.4 0-30.5 11.9-30.5 27.7 0 15.5 11.7 27.7 29.8 27.7h.4c18.8 0 30.5-12.3 30.4-27.7-.4-15.8-11.7-27.7-30.1-27.7m162.3 73.9c-28.6 0-46.5 15.6-49.8 26.6v-25.1H71.8c.7 13.3 0 159.7 0 159.7h56.1v-86.3c0-4.9-.2-9.7 1.2-13.1 3.8-9.6 12.1-19.6 27-19.6 19.5 0 28.3 14.8 28.3 36.4v82.6H241v-88.8c0-49.4-27.8-72.4-63.3-72.4"/></symbol></svg>