<svg width="38" height="38" viewBox="0 0 38 38" fill="none" xmlns="http://www.w3.org/2000/svg">
<ellipse cx="18.8683" cy="18.8683" rx="18.8683" ry="18.8683" fill="url(#paint0_linear_1_2992)"/>
<path d="M9.57962 28.7054H13.5276V14.0977H9.57962V28.7054ZM11.5536 7.64929C10.2376 7.64929 9.18481 8.7021 9.18481 10.0181C9.18481 11.3341 10.2376 12.3869 11.5536 12.3869C12.8696 12.3869 13.9224 11.3341 13.9224 10.0181C13.9224 8.7021 12.8696 7.64929 11.5536 7.64929ZM20.2393 16.3349V14.0977H16.2913V28.7054H20.2393V21.2042C20.2393 16.9929 25.6349 16.7297 25.6349 21.2042V28.7054H29.5829V19.7566C29.5829 12.6501 22.0817 12.9133 20.2393 16.3349Z" fill="#1F2626"/>
<defs>
<linearGradient id="paint0_linear_1_2992" x1="0" y1="18.8683" x2="37.7365" y2="18.8683" gradientUnits="userSpaceOnUse">
<stop stop-color="#00F5A0"/>
<stop offset="1" stop-color="#00D9F5"/>
</linearGradient>
</defs>
</svg>
